# xmcd CD database file
#
# Track frame offsets:
#	150
#	14632
#	29247
#	44955
#	63107
#	77705
#	94135
#	109807
#	126227
#	147440
#	171185
#
# Disc length: 2501 seconds
#
# Revision: 0
# Processed by: cddbd v1.4PL0 Copyright (c) Steve Scherf et al.
# Submitted via: CDex 1.40Release
#
DISCID=a409c30b
DTITLE=Ronnie Milsap - The Best of Ronnie Milsap Disc 1
DYEAR=1985
DGENRE=Country
TTITLE0=Back On My Mind Again
TTITLE1=(There's) No Gettin' Over Me
TTITLE2=He Got You
TTITLE3=Nobody Likes Sad Songs
TTITLE4=Don't You Know How Much I Love You
TTITLE5=Am I Losing You
TTITLE6=I Wouldn't Have Missed It For The World
TTITLE7=It Was Almost Like A Song
TTITLE8=How Do I Turn You On
TTITLE9=Still Losing You
TTITLE10=Happy, Happy Birthday Baby
EXTD=YEAR: 1985 ID3G: 2
EXTT0=
EXTT1=
EXTT2=
EXTT3=
EXTT4=
EXTT5=
EXTT6=
EXTT7=
EXTT8=
EXTT9=
EXTT10=
PLAYORDER=
